<svg xmlns="http://www.w3.org/2000/svg" xmlns:xlink="http://www.w3.org/1999/xlink" width="1080" zoomAndPan="magnify" viewBox="0 0 810 675.000002" height="900" preserveAspectRatio="xMidYMid meet" version="1.0"><defs><clipPath id="476383d9df"><path d="M 322 194 L 434 194 L 434 227 L 322 227 Z M 322 194 " clip-rule="nonzero"/></clipPath><clipPath id="5d779c6a26"><path d="M 240.351562 369.003906 L 350.242188 178.214844 L 569.585938 304.550781 L 459.695312 495.339844 Z M 240.351562 369.003906 " clip-rule="nonzero"/></clipPath><clipPath id="8b8427893b"><path d="M 240.351562 369.003906 L 350.242188 178.214844 L 569.585938 304.550781 L 459.695312 495.339844 Z M 240.351562 369.003906 " clip-rule="nonzero"/></clipPath><clipPath id="dbcdddf4e1"><path d="M 240.351562 369.003906 L 350.242188 178.214844 L 569.585938 304.550781 L 459.695312 495.339844 Z M 240.351562 369.003906 " clip-rule="nonzero"/></clipPath><clipPath id="c7ac9c0b75"><path d="M 350 209 L 406 209 L 406 401 L 350 401 Z M 350 209 " clip-rule="nonzero"/></clipPath><clipPath id="210e809709"><path d="M 240.351562 369.003906 L 350.242188 178.214844 L 569.585938 304.550781 L 459.695312 495.339844 Z M 240.351562 369.003906 " clip-rule="nonzero"/></clipPath><clipPath id="4a5428a482"><path d="M 240.351562 369.003906 L 350.242188 178.214844 L 569.585938 304.550781 L 459.695312 495.339844 Z M 240.351562 369.003906 " clip-rule="nonzero"/></clipPath><clipPath id="ff1be04021"><path d="M 240.351562 369.003906 L 350.242188 178.214844 L 569.585938 304.550781 L 459.695312 495.339844 Z M 240.351562 369.003906 " clip-rule="nonzero"/></clipPath><clipPath id="bcd4d3d87e"><path d="M 350 305 L 406 305 L 406 401 L 350 401 Z M 350 305 " clip-rule="nonzero"/></clipPath><clipPath id="c0f02719b9"><path d="M 240.351562 369.003906 L 350.242188 178.214844 L 569.585938 304.550781 L 459.695312 495.339844 Z M 240.351562 369.003906 " clip-rule="nonzero"/></clipPath><clipPath id="f5ff7bc31a"><path d="M 240.351562 369.003906 L 350.242188 178.214844 L 569.585938 304.550781 L 459.695312 495.339844 Z M 240.351562 369.003906 " clip-rule="nonzero"/></clipPath><clipPath id="ff7e95c959"><path d="M 240.351562 369.003906 L 350.242188 178.214844 L 569.585938 304.550781 L 459.695312 495.339844 Z M 240.351562 369.003906 " clip-rule="nonzero"/></clipPath><clipPath id="218fb62c11"><path d="M 405 305 L 460 305 L 460 496 L 405 496 Z M 405 305 " clip-rule="nonzero"/></clipPath><clipPath id="8545b07bfd"><path d="M 240.351562 369.003906 L 350.242188 178.214844 L 569.585938 304.550781 L 459.695312 495.339844 Z M 240.351562 369.003906 " clip-rule="nonzero"/></clipPath><clipPath id="b1286b56a5"><path d="M 240.351562 369.003906 L 350.242188 178.214844 L 569.585938 304.550781 L 459.695312 495.339844 Z M 240.351562 369.003906 " clip-rule="nonzero"/></clipPath><clipPath id="75226d1e46"><path d="M 240.351562 369.003906 L 350.242188 178.214844 L 569.585938 304.550781 L 459.695312 495.339844 Z M 240.351562 369.003906 " clip-rule="nonzero"/></clipPath><clipPath id="4709199329"><path d="M 405 305 L 460 305 L 460 401 L 405 401 Z M 405 305 " clip-rule="nonzero"/></clipPath><clipPath id="e927ead8ca"><path d="M 240.351562 369.003906 L 350.242188 178.214844 L 569.585938 304.550781 L 459.695312 495.339844 Z M 240.351562 369.003906 " clip-rule="nonzero"/></clipPath><clipPath id="3b79d26098"><path d="M 240.351562 369.003906 L 350.242188 178.214844 L 569.585938 304.550781 L 459.695312 495.339844 Z M 240.351562 369.003906 " clip-rule="nonzero"/></clipPath><clipPath id="b6a208e0d8"><path d="M 240.351562 369.003906 L 350.242188 178.214844 L 569.585938 304.550781 L 459.695312 495.339844 Z M 240.351562 369.003906 " clip-rule="nonzero"/></clipPath></defs><g clip-path="url(#476383d9df)"><g clip-path="url(#5d779c6a26)"><g clip-path="url(#8b8427893b)"><g clip-path="url(#dbcdddf4e1)"><path fill="#1892c9" d="M 432.453125 225.75 L 377.617188 194.167969 L 322.773438 225.996094 L 433.308594 226.246094 " fill-opacity="1" fill-rule="nonzero"/></g></g></g></g><g clip-path="url(#c7ac9c0b75)"><g clip-path="url(#210e809709)"><g clip-path="url(#4a5428a482)"><g clip-path="url(#ff1be04021)"><path fill="#1892c9" d="M 405.035156 209.960938 L 350.195312 210.078125 L 350.175781 368.601562 L 405.015625 400.179688 Z M 405.035156 209.960938 " fill-opacity="1" fill-rule="nonzero"/></g></g></g></g><g clip-path="url(#bcd4d3d87e)"><g clip-path="url(#c0f02719b9)"><g clip-path="url(#f5ff7bc31a)"><g clip-path="url(#ff7e95c959)"><path fill="#0a6eab" d="M 350.175781 368.601562 L 405.015625 400.179688 L 405.023438 305.070312 " fill-opacity="1" fill-rule="nonzero"/></g></g></g></g><g clip-path="url(#218fb62c11)"><g clip-path="url(#8545b07bfd)"><g clip-path="url(#b1286b56a5)"><g clip-path="url(#75226d1e46)"><path fill="#09668f" d="M 459.859375 336.65625 L 405.023438 305.070312 L 405 463.597656 L 459.839844 495.171875 Z M 459.859375 336.65625 " fill-opacity="1" fill-rule="nonzero"/></g></g></g></g><g clip-path="url(#4709199329)"><g clip-path="url(#e927ead8ca)"><g clip-path="url(#3b79d26098)"><g clip-path="url(#b6a208e0d8)"><path fill="#004e78" d="M 459.859375 336.65625 L 405.023438 305.070312 L 405.015625 400.179688 " fill-opacity="1" fill-rule="nonzero"/></g></g></g></g></svg>