<?xml version="1.0" encoding="utf-8"?>
<!-- Generator: Adobe Illustrator 26.0.3, SVG Export Plug-In . SVG Version: 6.00 Build 0)  -->
<svg version="1.0" id="katman_1" xmlns="http://www.w3.org/2000/svg" xmlns:xlink="http://www.w3.org/1999/xlink" x="0px" y="0px"
	 viewBox="0 0 600 450" style="enable-background:new 0 0 600 450;" xml:space="preserve">
<style type="text/css">
	.st0{fill-rule:evenodd;clip-rule:evenodd;fill:#20A637;}
</style>
<g id="Home">
	<g id="home-_x2F_-desktop" transform="translate(-164.000000, -9903.000000)">
		<path id="Combined-Shape" class="st0" d="M287.9,10073.1c30.4,0,55.1,24.6,54.9,55.1c0,22.9-13.8,42.4-33.7,50.8
			c-1.1,0.5-2.5,0.8-4,0.8c-5.6,0-10.3-4.6-10.3-10.3c0-4.3,2.6-8,6.3-9.5l0,0l0.8-0.3c12-5.3,20.4-17.4,20.4-31.4
			c0-19-15.4-34.4-34.4-34.4c-19,0-34.4,15.4-34.4,34.4c0,14.3,8.7,26.5,21.1,31.7l0,0l0.5,0.2c3.4,1.7,5.8,5.2,5.8,9.3
			c0,5.6-4.6,10.3-10.3,10.3c-1.4,0-2.9-0.3-4-0.8c-20-8.5-33.7-28-33.7-50.8C232.8,10097.7,257.5,10073.1,287.9,10073.1z
			 M287.9,10107.4c11.4,0,20.7,9.3,20.7,20.7s-9.2,20.7-20.7,20.7c-11.4,0-20.7-9.3-20.7-20.7S276.4,10107.4,287.9,10107.4z"/>
		<path id="Combined-Shape_00000127030825223163823100000000616066715247457158_" class="st0" d="M544.5,10091.4v71
			c0,14.9-6,21.3-22.1,21.3h-10.5v-15.5h9.1c4.9,0,6.6-1.8,6.6-6.1v-70.7H544.5z M439.6,10091.3v62.1c0,17.2-13.1,30.2-32.4,30.2
			c-12.6,0-23.7-4.5-31.1-12.3l0,0l11-10.6c4.8,4.7,10.3,7.3,19.8,7.3c9.4,0,16.5-6,16.5-14.3l0,0v-6.1h-0.2
			c-4.2,4.7-11.2,7.3-19.6,7.3c-18.7,0-32.7-13.5-32.7-32c0-17.8,13.6-31.5,32.1-31.5c8.6,0,15.8,2.5,20.1,7.1l0,0h0.2v-7.1H439.6z
			 M483.6,10091.3c19.9,0,34.1,13.9,34.1,31.9c0,18-14.1,31.9-34.1,31.9c-19.8,0-34.1-13.9-34.1-31.9
			C449.6,10105.2,463.8,10091.3,483.6,10091.3z M587.2,10091.3c20.2,0,32.8,14.4,32.8,32.5l0,0v4.8H571c0.3,6.3,8.2,12.9,18.3,12.9
			c6.8,0,11.4-1.8,16.4-6.4l0,0l11.4,8c-4.9,5.9-14.2,12.2-27.1,12.2c-21.2,0-35.6-12.7-35.6-31.8
			C554.4,10104.7,568,10091.3,587.2,10091.3z M646.2,10073.1l0.1,43.6h0.2l27.2-25.6h21.8l-28.2,26.8l28.1,37.2H676l-19.3-26.9h-0.2
			l-10.2,9.7v17.2h-16.3v-82.1H646.2z M483.6,10106.1c-10.5,0-17.2,7.3-17.2,17.1c0,9.8,6.7,17.1,17.2,17.1
			c10.5,0,17.2-7.4,17.2-17.1C500.9,10113.4,494.1,10106.1,483.6,10106.1z M406.1,10106.2c-11.2,0-18.4,6.8-18.4,16.6
			c0,10.7,6.7,17.1,17.6,17.1c9.6,0,17.2-5.9,17.2-13.4l0,0h0.1v-7.1C422.6,10112.4,414.9,10106.2,406.1,10106.2z M587.6,10104.9
			c-9,0-15.4,4.7-16.3,11.8l0,0h32.4C602.8,10109.6,596.5,10104.9,587.6,10104.9z"/>
	</g>
</g>
</svg>
