<?xml version="1.0" encoding="utf-8"?>
<!-- Generator: Adobe Illustrator 19.2.1, SVG Export Plug-In . SVG Version: 6.00 Build 0)  -->
<svg version="1.1" id="layer" xmlns="http://www.w3.org/2000/svg" xmlns:xlink="http://www.w3.org/1999/xlink" x="0px" y="0px"
	 viewBox="0 0 652 652" style="enable-background:new 0 0 652 652;" xml:space="preserve">
<style type="text/css">
	.st0{fill:#3E3A39;}
	.st1{fill-rule:evenodd;clip-rule:evenodd;fill:#3E3A39;}
	.st2{fill:#E50012;}
	.st3{fill:#FFFFFF;}
</style>
<g>
	<path class="st0" d="M191.3,368.2l14.8-2.3c0.6,2.9,1.9,5.1,3.8,6.6c1.9,1.5,4.6,2.2,8.1,2.2c3.8,0,6.7-0.7,8.6-2.1
		c1.3-1,1.9-2.3,2-3.9c0-1.1-0.4-2.1-1.1-2.8c-0.7-0.7-2.4-1.4-4.9-2c-11.9-2.6-19.5-5-22.7-7.2c-4.4-3-6.6-7.2-6.6-12.6
		c0-4.8,1.9-8.9,5.7-12.2c3.8-3.3,9.7-4.9,17.8-4.9c7.6,0,13.3,1.2,17,3.7c3.7,2.5,6.3,6.2,7.7,11.1l-13.9,2.6
		c-0.6-2.2-1.7-3.8-3.4-5c-1.7-1.2-4-1.7-7.1-1.7c-3.9,0-6.7,0.6-8.4,1.6c-1.1,0.8-1.7,1.8-1.7,3c0,1.1,0.5,1.9,1.5,2.7
		c1.3,1,5.9,2.4,13.8,4.2c7.9,1.8,13.4,4,16.5,6.6c3.1,2.6,4.6,6.3,4.6,11c0,5.1-2.1,9.5-6.4,13.2c-4.3,3.7-10.6,5.5-19,5.5
		c-7.6,0-13.6-1.5-18.1-4.6C195.6,377.7,192.7,373.5,191.3,368.2"/>
	<path class="st1" d="M252.2,307H267v13.7h-14.8V307z M252.2,328.3H267v55.9h-14.8V328.3z"/>
	<path class="st0" d="M328.6,384.1h-14.8v-28.5c0-6-0.3-9.9-0.9-11.7c-0.6-1.8-1.7-3.2-3.1-4.2c-1.4-1-3.1-1.5-5.1-1.5
		c-2.6,0-4.9,0.7-6.9,2.1c-2,1.4-3.4,3.3-4.2,5.6c-0.7,2.3-1.1,6.6-1.1,12.8v25.3h-14.8v-55.9h13.7v8.2c4.9-6.3,11-9.5,18.4-9.5
		c3.3,0,6.2,0.6,8.9,1.8c2.7,1.2,4.7,2.7,6.1,4.5c1.4,1.8,2.4,3.9,2.9,6.2c0.6,2.3,0.8,5.6,0.8,9.9V384.1z"/>
	<path class="st1" d="M350.4,345.3l-13.4-2.4c1.5-5.4,4.1-9.4,7.8-12c3.7-2.6,9.2-3.9,16.4-3.9c6.6,0,11.5,0.8,14.7,2.4
		c3.2,1.5,5.5,3.5,6.8,5.9c1.3,2.4,2,6.8,2,13.2l-0.2,17.3c0,4.9,0.2,8.5,0.7,10.9c0.5,2.3,1.4,4.8,2.7,7.5h-14.6
		c-0.4-1-0.9-2.4-1.4-4.4c-0.2-0.9-0.4-1.5-0.5-1.7c-2.5,2.5-5.2,4.3-8.1,5.5c-2.9,1.2-5.9,1.8-9.2,1.8c-5.7,0-10.3-1.6-13.6-4.7
		c-3.3-3.1-4.9-7.1-4.9-11.8c0-3.2,0.8-6,2.3-8.4c1.5-2.5,3.6-4.4,6.3-5.7c2.7-1.3,6.7-2.5,11.8-3.5c6.9-1.3,11.7-2.5,14.4-3.6v-1.5
		c0-2.8-0.7-4.9-2.1-6c-1.4-1.2-4.1-1.8-7.9-1.8c-2.6,0-4.7,0.5-6.2,1.6C352.5,340.9,351.3,342.7,350.4,345.3 M370.2,357.3
		c-1.9,0.6-4.9,1.4-9,2.3c-4.1,0.9-6.8,1.7-8,2.6c-1.9,1.4-2.9,3.1-2.9,5.2c0,2.1,0.8,3.9,2.3,5.4c1.5,1.5,3.5,2.3,5.9,2.3
		c2.7,0,5.2-0.9,7.6-2.6c1.8-1.3,3-3,3.5-4.9c0.4-1.3,0.6-3.7,0.6-7.2V357.3z"/>
	<path class="st0" d="M409.1,384.1h-14.8v-55.9h13.7v7.9c2.4-3.8,4.5-6.2,6.3-7.4c1.9-1.2,4-1.8,6.4-1.8c3.4,0,6.6,0.9,9.7,2.8
		l-4.6,12.9c-2.5-1.6-4.8-2.4-6.9-2.4c-2.1,0-3.8,0.6-5.3,1.7c-1.4,1.1-2.6,3.2-3.4,6.2c-0.8,3-1.2,9.2-1.2,18.7V384.1z"/>
	<path class="st0" d="M431.5,328.3h13.6v7.6c4.9-5.9,10.7-8.9,17.4-8.9c3.6,0,6.7,0.7,9.3,2.2c2.6,1.5,4.8,3.7,6.5,6.7
		c2.5-3,5.1-5.2,7.9-6.7c2.8-1.5,5.9-2.2,9.1-2.2c4.1,0,7.6,0.8,10.4,2.5c2.8,1.7,5,4.1,6.4,7.3c1,2.4,1.5,6.2,1.5,11.6v35.7h-14.8
		v-31.9c0-5.5-0.5-9.1-1.5-10.7c-1.4-2.1-3.5-3.2-6.3-3.2c-2.1,0-4,0.6-5.8,1.9s-3.1,3.1-3.9,5.6c-0.8,2.4-1.2,6.3-1.2,11.5v26.8
		h-14.8v-30.6c0-5.4-0.3-8.9-0.8-10.5c-0.5-1.6-1.4-2.8-2.5-3.5c-1.1-0.8-2.6-1.2-4.5-1.2c-2.3,0-4.3,0.6-6.2,1.8
		c-1.8,1.2-3.1,3-3.9,5.3c-0.8,2.3-1.2,6.2-1.2,11.5v27.1h-14.8V328.3z"/>
	<path class="st1" d="M535.2,345.3l-13.4-2.4c1.5-5.4,4.1-9.4,7.8-12c3.7-2.6,9.1-3.9,16.4-3.9c6.6,0,11.5,0.8,14.7,2.4
		c3.2,1.5,5.5,3.5,6.8,5.9c1.3,2.4,2,6.8,2,13.2l-0.2,17.3c0,4.9,0.2,8.5,0.7,10.9c0.5,2.3,1.4,4.8,2.7,7.5H558
		c-0.4-1-0.9-2.4-1.4-4.4c-0.2-0.9-0.4-1.5-0.5-1.7c-2.5,2.5-5.2,4.3-8.1,5.5c-2.9,1.2-5.9,1.8-9.2,1.8c-5.7,0-10.3-1.6-13.6-4.7
		c-3.3-3.1-4.9-7.1-4.9-11.8c0-3.2,0.8-6,2.3-8.4c1.5-2.5,3.6-4.4,6.3-5.7c2.7-1.3,6.7-2.5,11.8-3.5c6.9-1.3,11.7-2.5,14.4-3.6v-1.5
		c0-2.8-0.7-4.9-2.1-6c-1.4-1.2-4.1-1.8-7.9-1.8c-2.6,0-4.7,0.5-6.2,1.6C537.3,340.9,536.1,342.7,535.2,345.3 M554.9,357.3
		c-1.9,0.6-4.9,1.4-9,2.3c-4.1,0.9-6.8,1.7-8,2.6c-1.9,1.4-2.9,3.1-2.9,5.2c0,2.1,0.8,3.9,2.3,5.4c1.5,1.5,3.5,2.3,5.9,2.3
		c2.7,0,5.2-0.9,7.6-2.6c1.8-1.3,3-3,3.5-4.9c0.4-1.3,0.6-3.7,0.6-7.2V357.3z"/>
	<path class="st0" d="M574.5,368.2l14.8-2.3c0.6,2.9,1.9,5.1,3.8,6.6c1.9,1.5,4.6,2.2,8.1,2.2c3.8,0,6.7-0.7,8.6-2.1
		c1.3-1,2-2.3,2-3.9c0-1.1-0.4-2.1-1.1-2.8c-0.7-0.7-2.4-1.4-4.9-2c-11.9-2.6-19.5-5-22.7-7.2c-4.4-3-6.6-7.2-6.6-12.6
		c0-4.8,1.9-8.9,5.7-12.2c3.8-3.3,9.7-4.9,17.8-4.9c7.6,0,13.3,1.2,17,3.7c3.7,2.5,6.3,6.2,7.7,11.1l-13.9,2.6
		c-0.6-2.2-1.7-3.8-3.4-5c-1.7-1.2-4-1.7-7.1-1.7c-3.9,0-6.7,0.6-8.4,1.6c-1.1,0.8-1.7,1.8-1.7,3c0,1.1,0.5,1.9,1.5,2.7
		c1.3,1,5.9,2.4,13.8,4.2c7.9,1.8,13.4,4,16.5,6.6c3.1,2.6,4.6,6.3,4.6,11c0,5.1-2.1,9.5-6.4,13.2c-4.3,3.7-10.6,5.5-19,5.5
		c-7.6,0-13.6-1.5-18.1-4.6C578.8,377.7,575.9,373.5,574.5,368.2"/>
	<path class="st0" d="M192.6,286.3l7.5-1.2c0.3,1.5,1,2.6,2,3.3c1,0.7,2.4,1.1,4.1,1.1c1.9,0,3.4-0.4,4.4-1.1c0.7-0.5,1-1.2,1-2
		c0-0.6-0.2-1-0.5-1.4c-0.4-0.4-1.2-0.7-2.5-1c-6.1-1.3-9.9-2.6-11.5-3.7c-2.2-1.5-3.4-3.7-3.4-6.4c0-2.5,1-4.5,2.9-6.2
		s4.9-2.5,9-2.5c3.9,0,6.8,0.6,8.6,1.9c1.9,1.3,3.2,3.1,3.9,5.6l-7.1,1.3c-0.3-1.1-0.9-1.9-1.7-2.5c-0.8-0.6-2-0.9-3.6-0.9
		c-2,0-3.4,0.3-4.2,0.8c-0.6,0.4-0.9,0.9-0.9,1.5c0,0.5,0.3,1,0.8,1.4c0.7,0.5,3,1.2,7,2.1c4,0.9,6.8,2,8.4,3.3
		c1.6,1.3,2.3,3.2,2.3,5.6c0,2.6-1.1,4.8-3.3,6.7c-2.2,1.9-5.4,2.8-9.6,2.8c-3.9,0-6.9-0.8-9.2-2.3
		C194.8,291.1,193.3,289,192.6,286.3"/>
	<path class="st1" d="M239.9,285.3l7.5,1.3c-1,2.7-2.5,4.8-4.6,6.3c-2.1,1.4-4.7,2.1-7.8,2.1c-4.9,0-8.6-1.6-11-4.8
		c-1.9-2.6-2.8-5.8-2.8-9.8c0-4.7,1.2-8.4,3.7-11c2.5-2.7,5.6-4,9.3-4c4.2,0,7.5,1.4,10,4.2c2.4,2.8,3.6,7,3.5,12.8H229
		c0.1,2.2,0.7,4,1.8,5.2c1.2,1.2,2.6,1.8,4.3,1.8c1.2,0,2.2-0.3,3-1C238.9,287.8,239.5,286.8,239.9,285.3 M240.4,277.8
		c-0.1-2.2-0.6-3.8-1.7-4.9c-1.1-1.1-2.4-1.7-3.9-1.7c-1.6,0-3,0.6-4.1,1.8c-1.1,1.2-1.6,2.8-1.6,4.9H240.4z"/>
	<polygon class="st0" points="251.5,294.4 251.5,255.2 259,255.2 259,276 267.8,266 277,266 267.3,276.4 277.7,294.4 269.6,294.4 
		262.5,281.6 259,285.3 259,294.4 	"/>
	<path class="st0" d="M298.7,294.4v-4.2c-1,1.5-2.4,2.7-4.1,3.6c-1.7,0.9-3.4,1.3-5.3,1.3c-1.9,0-3.6-0.4-5.1-1.3
		c-1.5-0.8-2.6-2-3.3-3.5c-0.7-1.5-1-3.6-1-6.3V266h7.5v13c0,4,0.1,6.4,0.4,7.3c0.3,0.9,0.8,1.6,1.5,2.1c0.7,0.5,1.7,0.8,2.8,0.8
		c1.3,0,2.4-0.4,3.5-1c1-0.7,1.7-1.6,2.1-2.6c0.4-1.1,0.6-3.6,0.6-7.7v-12h7.5v28.4H298.7z"/>
	<path class="st0" d="M318.4,294.4h-7.5V266h7v4c1.2-1.9,2.3-3.2,3.2-3.8c1-0.6,2-0.9,3.3-0.9c1.7,0,3.4,0.5,4.9,1.4l-2.3,6.5
		c-1.3-0.8-2.4-1.2-3.5-1.2c-1.1,0-1.9,0.3-2.7,0.9c-0.7,0.6-1.3,1.6-1.7,3.1c-0.4,1.5-0.6,4.7-0.6,9.5V294.4z"/>
	<path class="st1" d="M330.3,255.2h7.5v6.9h-7.5V255.2z M330.3,266h7.5v28.4h-7.5V266z"/>
	<path class="st0" d="M356.3,266v6h-5.1v11.4c0,2.3,0,3.7,0.1,4.1c0.1,0.4,0.3,0.7,0.7,0.9c0.4,0.3,0.8,0.4,1.3,0.4
		c0.7,0,1.7-0.2,3-0.7l0.6,5.8c-1.7,0.8-3.7,1.1-5.9,1.1c-1.4,0-2.6-0.2-3.7-0.7c-1.1-0.5-1.9-1.1-2.4-1.8c-0.5-0.7-0.9-1.7-1-2.9
		c-0.2-0.9-0.2-2.6-0.2-5.3V272h-3.5v-6h3.5v-5.6l7.5-4.4v10H356.3z"/>
	<path class="st1" d="M365,274.7l-6.8-1.2c0.8-2.7,2.1-4.8,4-6.1c1.9-1.3,4.6-2,8.3-2c3.3,0,5.8,0.4,7.5,1.2c1.6,0.8,2.8,1.8,3.4,3
		c0.7,1.2,1,3.4,1,6.7l-0.1,8.8c0,2.5,0.1,4.3,0.4,5.5c0.3,1.2,0.7,2.4,1.4,3.8h-7.4c-0.2-0.5-0.4-1.2-0.7-2.2
		c-0.1-0.4-0.2-0.7-0.3-0.9c-1.3,1.3-2.7,2.2-4.1,2.8c-1.5,0.6-3,0.9-4.7,0.9c-2.9,0-5.2-0.8-6.9-2.4c-1.7-1.6-2.5-3.6-2.5-6
		c0-1.6,0.4-3,1.2-4.3c0.8-1.3,1.8-2.2,3.2-2.9c1.4-0.7,3.4-1.3,6-1.8c3.5-0.7,5.9-1.3,7.3-1.8v-0.8c0-1.4-0.4-2.5-1.1-3.1
		c-0.7-0.6-2.1-0.9-4-0.9c-1.3,0-2.4,0.3-3.1,0.8C366.1,272.4,365.4,273.3,365,274.7 M375,280.7c-1,0.3-2.5,0.7-4.6,1.2
		c-2.1,0.4-3.4,0.9-4.1,1.3c-1,0.7-1.5,1.6-1.5,2.7c0,1.1,0.4,2,1.2,2.7c0.8,0.8,1.8,1.1,3,1.1c1.4,0,2.6-0.4,3.9-1.3
		c0.9-0.7,1.5-1.5,1.8-2.5c0.2-0.6,0.3-1.9,0.3-3.7V280.7z"/>
	<path class="st0" d="M385,286.3l7.5-1.2c0.3,1.5,1,2.6,2,3.3c1,0.7,2.4,1.1,4.1,1.1c1.9,0,3.4-0.4,4.4-1.1c0.7-0.5,1-1.2,1-2
		c0-0.6-0.2-1-0.5-1.4c-0.4-0.4-1.2-0.7-2.5-1c-6.1-1.3-9.9-2.6-11.5-3.7c-2.2-1.5-3.4-3.7-3.4-6.4c0-2.5,1-4.5,2.9-6.2
		s4.9-2.5,9-2.5c3.9,0,6.8,0.6,8.6,1.9c1.9,1.3,3.2,3.1,3.9,5.6l-7.1,1.3c-0.3-1.1-0.9-1.9-1.7-2.5c-0.8-0.6-2-0.9-3.6-0.9
		c-2,0-3.4,0.3-4.2,0.8c-0.6,0.4-0.9,0.9-0.9,1.5c0,0.5,0.3,1,0.8,1.4c0.7,0.5,3,1.2,7,2.1c4,0.9,6.8,2,8.4,3.3
		c1.6,1.3,2.3,3.2,2.3,5.6c0,2.6-1.1,4.8-3.3,6.7c-2.2,1.9-5.4,2.8-9.6,2.8c-3.9,0-6.9-0.8-9.2-2.3C387.1,291.1,385.7,289,385,286.3
		"/>
	<path class="st2" d="M26.7,273.2v108.3c0,9.9,8.1,18,18.1,18h108.3c9.9,0,18-8.1,18-18V273.2c0-9.9-8.1-18.1-18-18.1H44.8
		C34.8,255.2,26.7,263.3,26.7,273.2"/>
	<path class="st3" d="M36.6,326.9c7,0,14,0,21,0c0-29,23.1-49.6,49.7-49.6c26.6,0,51.1,21.5,51.4,49.5l2.6,0
		c0-33.8-27.4-61.7-62.2-61.7C64.4,265.1,36.6,293.1,36.6,326.9"/>
	<path class="st3" d="M58.7,326.9c7,0,13.1,0,20.1,0c0-18.4,15.3-36.5,38.3-36.5c23,0,37.5,19.3,37.5,36.5h2.6
		c0-21.3-18.5-47.7-49.6-47.8C76.6,279.1,58.7,304.7,58.7,326.9"/>
	<path class="st3" d="M80.2,326.9c7,0,11.8,0,18.8,0c0-14.7,13.2-25,26-25c12.8,0,25.7,10,25.7,25h2.6c0-20.3-18-35.2-36.6-35.3
		C98.1,291.6,80.2,306.5,80.2,326.9"/>
	<path class="st3" d="M161.2,327.9c-7,0-14,0-21,0c0,29-23.1,49.6-49.7,49.6s-51.1-21.6-51.4-49.5l-2.6,0
		c0,33.8,27.4,61.7,62.2,61.7C133.4,389.7,161.3,361.7,161.2,327.9"/>
	<path class="st3" d="M139.2,327.9c-7,0-13.1,0-20.1,0c0,18.5-15.3,36.5-38.3,36.5c-23,0-37.5-19.3-37.5-36.5h-2.6
		c0,21.3,18.5,47.7,49.6,47.8C121.3,375.7,139.2,350,139.2,327.9"/>
	<path class="st3" d="M117.7,327.9c-7,0-11.8,0-18.8,0c0,14.7-13.2,25-26,25c-12.8,0-25.7-10-25.7-25h-2.6c0,20.3,18,35.2,36.6,35.3
		C99.8,363.2,117.7,348.3,117.7,327.9"/>
</g>
</svg>
